<svg width="14" height="8" viewBox="0 0 14 8" fill="none" xmlns="http://www.w3.org/2000/svg">
<path d="M6.2947 7.70714C6.4669 7.87932 6.696 7.98275 6.93902 7.99803C7.18205 8.01331 7.4223 7.93939 7.6147 7.79014L7.7087 7.70714L13.7087 1.70714L13.7917 1.61314L13.8457 1.53614L13.8997 1.44014L13.9167 1.40414L13.9437 1.33714L13.9757 1.22914L13.9857 1.17614L13.9957 1.11614L13.9997 1.05914L14.0017 1.00014L13.9997 0.941139L13.9947 0.883139L13.9857 0.823139L13.9757 0.771139L13.9437 0.663139L13.9167 0.596138L13.8467 0.464139L13.7817 0.374138L13.7087 0.293139L13.6147 0.210139L13.5377 0.156139L13.4417 0.102139L13.4057 0.0851388L13.3387 0.0581384L13.2307 0.0261388L13.1777 0.0161386L13.1177 0.00613832L13.0607 0.00213861L13.0017 0.00013876H1.0017C0.149704 0.00013876 -0.295296 0.986139 0.218704 1.62314L0.294704 1.70714L6.2947 7.70714Z" fill="#3B6EFF"/>
</svg>
