<svg width="24" height="24" viewBox="0 0 24 24" fill="none" xmlns="http://www.w3.org/2000/svg">
<path d="M5.08863 16.0703C4.52986 16.0724 3.98422 16.2398 3.52054 16.5517C3.05687 16.8635 2.69594 17.3057 2.48331 17.8224C2.27067 18.3391 2.21586 18.9073 2.32577 19.4551C2.43569 20.003 2.70542 20.506 3.10092 20.9007C3.49643 21.2954 3.99998 21.5642 4.54805 21.673C5.09613 21.7818 5.66415 21.7259 6.18046 21.5122C6.69677 21.2986 7.13823 20.9368 7.44913 20.4725C7.76004 20.0082 7.92645 19.4622 7.92738 18.9034C7.92502 18.1518 7.62501 17.4317 7.09299 16.9007C6.56097 16.3698 5.84027 16.0712 5.08863 16.0703Z" fill="#3479EB"/>
<path d="M2.25 8.75V12.807C4.6875 12.807 7.02844 13.5284 8.75016 15.2497C10.4719 16.9709 11.1877 19.3072 11.1877 21.7498H15.2498C15.2498 14.6455 9.35953 8.75 2.25 8.75Z" fill="#3479EB"/>
<path d="M2.25 2.25V6.3075C10.9336 6.3075 17.6822 13.0612 17.6822 21.75H21.75C21.75 10.9997 13.0158 2.25 2.25 2.25Z" fill="#3479EB"/>
</svg>
